<mxfile host="app.diagrams.net" agent="Mozilla/5.0 (Windows NT 10.0; Win64; x64) AppleWebKit/537.36 (KHTML, like Gecko) Chrome/132.0.0.0 Safari/537.36" version="26.1.0">
  <diagram id="C5RBs43oDa-KdzZeNtuy" name="Page-1">
    <mxGraphModel dx="1434" dy="738" grid="1" gridSize="10" guides="1" tooltips="1" connect="1" arrows="1" fold="1" page="1" pageScale="1" pageWidth="827" pageHeight="1169" math="0" shadow="0">
      <root>
        <mxCell id="WIyWlLk6GJQsqaUBKTNV-0" />
        <mxCell id="WIyWlLk6GJQsqaUBKTNV-1" parent="WIyWlLk6GJQsqaUBKTNV-0" />
        <mxCell id="2i8kP_EbP8lLGdPD6YHy-5" value="" style="edgeStyle=orthogonalEdgeStyle;rounded=0;orthogonalLoop=1;jettySize=auto;html=1;" edge="1" parent="WIyWlLk6GJQsqaUBKTNV-1" source="WIyWlLk6GJQsqaUBKTNV-3" target="2i8kP_EbP8lLGdPD6YHy-4">
          <mxGeometry relative="1" as="geometry" />
        </mxCell>
        <mxCell id="WIyWlLk6GJQsqaUBKTNV-3" value="Foreach -&amp;gt;&amp;nbsp;AddGrid" style="rounded=1;whiteSpace=wrap;html=1;fontSize=12;glass=0;strokeWidth=1;shadow=0;" parent="WIyWlLk6GJQsqaUBKTNV-1" vertex="1">
          <mxGeometry x="140" y="220" width="120" height="40" as="geometry" />
        </mxCell>
        <mxCell id="2i8kP_EbP8lLGdPD6YHy-2" value="" style="shape=image;verticalLabelPosition=bottom;labelBackgroundColor=default;verticalAlign=top;aspect=fixed;imageAspect=0;image=data:image/png,iVBORw0KGgoAAAANSUhEUgAAAcgAAACvCAIAAAD2RdnrAAAgAElEQVR4Ae1dO2tlx7Lef8E/4WQOJjKOJhVcHM0PEE6tTExwE0WD/QMMCqTAzIGBg5OBc4IBI5jQwdxEgeDgRGgCo0CRYqX7UtVd1VX92uvRS6u3dgnjWbu7V3fV91V//VivzcPDw7/+9a+HJf9+/3Hz/S9fkha+/PJ9LjkpNzlhab+cYb//uAl/3//4y++pp5M9yJ/4PH49fPn9lx+/9669FL8UWZvvv/9xebaW718uSr78QmR5zn78PR8+zVKfJw5//3GzuCcakv/85z//nf23eXh4+PDhg675hfwyv/aLSOPL+OoBgX//+9+zdfW/IKz//Oc/e/CnuQ3mV3NIF63Q+FoU3uaVv1S+/vG//zP/v8379+9/sz9DwBAwBAwBRGC+qv7jf/8HZqy//fbb9iX+/fXXXy/Rra35tV+0Gl8HyJcJ636RDtZaR90vzoyvA+TLhHW/SDdhNb56QcAGjAoTJqwVcDrNsoDulJiCWcZXAZhOk5vwZcLaKbsVs5oQX6l/rSzzay3kp7VrfFVwywvr1cnJlTvp7vzk/E6eX8mSxXo4NuJ7YGG4DcbXcKx6KGl8VVjICmtFPCtZlVbWyTLi18F9aqvG11Tk1jnP+KrgnhNWMUsNOurqqGRVGlkpy4hfCfiJzRpfE4Fb6TTjqwK8Fta785OTk5PXr1/DP/DnDs+v7raVrEr1q2YZ8avCP7px42s0ZKueYHxV4NfCigUrs9JKVqWNtbKM+LWQn9au8TUNt7XOMr4qyGeENSz/787pGpavoZJVaWOtLCN+LeSntWt8TcNtrbOMrwryqbAKNb2K7gioZFWaWC3LiF8N+kkNG1+TYFvtJOOrAr0SVtxHDTusr/0h3G9VyarUvm6WEb8u/mNbN77GIrZueeOrgr8SViinVvt7ewsremzEV4jvMMv46pCUiknGVwWcWFgrl6cqWZUGVswy4lcEf0LTxtcE0FY8xfiqgB8L6wuasNpboCq895hlHbVHVso2GV9lbLaxsFaK7l2WEb9flBlfxlcPCDSJQxPWHqgcZ0MT4sc1+Sylza9ngblZI8ZXBUoT1go4nWZZQHdKTMEs46sATKfJTfjy37wKH3C2I0PAEDAEhiHwfy/xb7PZ/DX7z89Yvxx/8/L+22w2L8+pL8ffmF/7RavxtXd8zZ9Lm7Du34hiHXXvOup+GTzQ2hcchyasNVl8wcQPDP39KmZ8GV89ILDZbExYTVhrCPQQpsNtMGEdjlUPJV8wXyasNVl5wcT30K+a22B8NYd00QpfMF8mrEOF9ebT16dPR+Pi7Ozi6eHipr/LetMC+vZ6u03dufy8vT4dB8tigIzw6+z0/vqrj/6Hr4+XdWZPH7efb8FsPvjmy9np44Ov4OmaWRYF2rmZ+NWklVmV3Hwi9BADgUCtQ0VxkvhVPBdij/6mtPW8PdG2AopEugiQxJuw3l5vnx6S0WUvhfX0cbt9+nTqx7wz+Pl4WQkG1iA+OLp/2D76gfbo9tPXRUcXiMPLz6PH9VTZm1SC1erugAikg25qgE6R/SvS3Ojn7TUTNKmtmcI6EjcT1kpfgixJvI6kHSf6sJhJp47CKNTm/JR+Da8Hg/v08eHr/Zlwfw+FFUaIaPFxdvF0TTqbgZ31ND1wUBzdP3y+lbBkKhGgjczdbDZTwi9ppUklLmCSqo7uo8BIWk8jbXgcCmHV64YBrUC783pi4uwOKk1YdwPE0SDAxV50TCvBh89CaI5uwwLz8/2l3ApQWa4TijoxXB7cenOHVWzS5IPhAS2b8MF9+Vntb0hhza+OXZc78ktvBxeXVC5nIJIG7Dwe5heLYxbnrA18SnoQVUIFzi6eaOmK//JolK0/qiT+KTsqzqxdK4mWsXwwvNstL5zlalpU8s2X4ynxrEPXVUI+5lrPtjKML0CjIKyEtpNXdh9+KpwrPbGS5TppglvMThqWki8VBWN+HMp9rCKSIBAfr/0MBTabaBEEHPDEx3WtkPWV1543ILhOQ0PfuL3+Wl2N7qYzJbiUMjygZQ0c3MrUIKxHWMBtVsrVMfj4JOG6vrj3m5IY/bRFe3udhWiE44P8Ut0vrrxgA3dgPvgGef98H2/OhgIBOjEUFeqPzQjnomQkM1ZqJYAPNRBBJSLAZjFVp0pQWAfEM2yYcKjrqpBHH+ql1jO9ZhBfiAC55hWTvGAXEEDBbLUnyk6qnCqxo53dQZZb6Y6R0HzZwxRW3vHBVUZ6ZQOjQWju6SMprOszIVBcNOBSNOpOy/0cHtDShmCzvIaj+3YoH6IctiOpJ7h1HE1t1BqtDBGCGWou/xzkVzAs7SElG7gD84HryXAF7AlnhbQPoAuAqaePYVZeqj+1RKUUhVUSoY7F6cJfLRBsKu4X8xYzTAiSK3UO88vPUliFHnwtbqSE1jOtDOILm5bTRtEWu+Do4AWiTj92o6C7wBhnfQlOFdnRuAlsC6FoM9YdGEniBbhhmom9nagKMUTVckq8MISYZK3BC6zPtAng5En6NUSwXBkhrN9AOLqZJh+ASsIObOhvNIXRu28ElwvKYRANNHKQX9xi2iuKNLHNfEAUYyViCRIVgFAJC5Fi/aq21NmysPIsFRh5orl/gYjKjFUMdSzQKVAiJXQHMR/3lg8Og0F8IcIy9opos3l8wBRzCh9ks0Ls+iPXSYOzfFb1wIR1d0BzlAtwJwmrnrFytbiC+/o0fuNf1jD2eHhAy5plcOOWGUpGEFa8tv7piC618/ShAJcLTQ50PqiGrLQnPR7m1+njVuqIiIGiDSyXfCDOQoMJHFVAxAyWL9Yf1xa5VhFWHuHIALcmgDsWEiKWEVbcguBZAt6Rlm09EwbD+AJwhHfwk4BVaIcrVCnOnMIHHGacwgecRQfU3A6amDUT1h1ISeIFuJkQiW9yRErUVoBfXiUtuolGmVRmq+GB9Gt4tVFwYxx/vmVhjVwIK6wSXAhFOEt3Eorp4eZFd3FUTizfFVCygdPpgL0mOwkcKnCsp5C+mMilEyt2clZNWP0EU9QcIEWEAxGsRy4I+ZQSQVyAgrZUVdg9SK6/h1MyrQyPQ4LXW0KdUdcZ2ootr/XE8lmMPzVHOOzizoR1B1KSeAGuppOXTjiu8sUrWLCIzX69m877bu6CLJgh6t9hFfM9+UD6NbySKLi9zXBhCh8QcL3L3XLkrguP2grQ6OFidvT2yGC/YHLN1xKhLbqPtUATd1R5sOXHCm4uP2+jfUlQt4z9hfp3MO6EVdwqy2bAicDLtbjLtUgExFiukkHx/OXsAlqhhVcUrqHmYuuZVgbzpWas2LP8mgPGSHe5+Oz0/tNnvpIhca72ROWUPEtGYPBul6S63mTCujugWXdEJGVCBGesY27yQAESdeobVobxx7aNPRge0LLmVFhxQwCusbpiN58++3uMHj7fhlvNKnBFExx9i8z420JH+KWevJIX97M2sJDxgXryahtuufMFoCvqP1osZ+sfEIcgWPCH9QgzcGq81ZsbBSLchda0kgpBdJMcXKA7vRFzYR266ppkofVMK8P5AsnjvwfBF9/aBcOYvPqkcQ7RiB2N7omMnIpv0uIIVODvIMvuChgEkFSWF3M8PKD3y2Xza0G+zk7hYTO+eaDF2L8+Xws4ZcJqwrobgQU7aoueGZm3fkddwKnhe8cRGvN/3sAVf54ofqVHeJuFzSp8Le1UM2F9//79b7/9NuxDDFbKEDAEDIGXj8DsL7P8dSgPCMwf//upYZWZwjO4b349A8gNm3jBfPE8f/KBCWuzlVHDkK1X9YIDuu74nuYaX/tFnN0VsEMTLaD3LqD3y+CB1locDgSqk2IHJazl523KFxzmBfTR7Sf14qv766/3TS+qTg6jeX5lRyO4mYbv65xs2MwT2/nVF3dlv05vw1tg8OZoukMIX5QTvb376JZfQati/ujmEl96QPeoahbwNikft9EtU9lIGJFY9mtEJdra9ifefooCW+GcbX1BYYX3xDzk/qN7Hp1BcMtbtphMlKecXTzKLHUsVSzFV9/6pwIrLexTFPG1pp2nsQG31+LRSXEPYJaM50xUfg2Dom4e3LaZ75YJtnAjN735FJ86a/iFhaJfz8Zd8kRWFTc3GiUQJYwU/cKX4z09XNxCP4LdvKcHd+0+PHgiDYAL4luUCQQEt/++brdfnz5d3F4e3ZxFQuwNk2Esj0PNcJdorrOLxOx9WmW/NCb40IF4OafOTeAKhsVZ8C4LYeoF3iEgU5KODI9+bLd01uMneHcXIEYp/FZG2eiiwpq75W1I2BUeWfF2l98ClVAegZhuIgvViwnwzCniy0072xIDvpEp7o7xwEfusRzJzaLHyq+C7yMMcMEnow3DTkxgQUGe8P0sT3B39ym96VK8oGS+GfrF5Mr+Z+Nu3Kvmh04A63zdXJ7eXH72yuUMqPl7RO9sdEGelWDVd6SyyGOg0k2Qo+YuL6Ibs25g0pdRw7pfgcGdk5LawElG6gBTr750D1nICZwrzFpEL7iBxyJcMUoJRor6lxVWpetO4LfhKZ2sQfD4uX6GJC6Gj0AIeQpDR/TwSXyiePA0ycpQ7soo4lX0HN3QmgtKnsELL4SM+rj0UQhMwHz5nmYE+NrH/OxguG1zSiq/REBMqBPH/OTZzUzYgb+6g7lXYQYG4RlQiep4w4p+PRt3zyusIQjhhlN4RzDMyD4d4SjOwHplKUxIs8KqeoQIbBnkogzCG1afEPeqdc17OLHIV0T9TmFVz1yF+unt2jLl9PH64jaJz1hn3QstUYvc4tv1ZTmu8AOHaa9ZVlgzY1R1xsrT8nt4dhsWLJlFouohEi9/HELNvQWDZ+zuPufwc9Ddzop4bNoT4CKJ6HGJMv4Q67Cr69764c+ls1I+ni1F+RUF8Yif+NQgqKGeBJUdlB1MHoPju5gdAk7Rr2fj7lmF9RTWAe4bM2rGCukwl1SQwsOpT9cXMHTp+Z0UC9hJiKeWR/fXPOmTx6L3qYbw7TP6yzcx1xRjRb6ogCcdtwLoqXHRbigmH2aVBXLDBu6H8MaC1E03Y4sQyD3JHWErW4TjZYVVjFo0fJVmrPjgNr5MgRZH/lHuaNt4hz/4viX+XmbkbYM9VlwFwNb1PS1tUEyP7nF7MRZWXCBD3J8d0a4ivOt36F5kCJrIkQY/hwb0LhtgEYpl3KB4f/YNrEl1p8K+QUtLmss8fqKXCtJkJDNl2NV6KrVFv3zPb89dfC2BHJSLKt1R3fue3XqFov0YcAtvU00cL/oFL//HtwdAsGEvAwMoxiK9w9Hr8VP0Sd2c9IABQojdiWJSQju5FIoBXraBujwunOcKK3rHUpjyjm8Tz3b8gndnYbPCd9uzo1tcUKamxpuqHofa4ntBYc05TzSIuLlx78QNb1UIoQY1OHnlrRzHN2gT0RYf8NBKPTkUwOXJNS6XxP/ra08V0BymQDMtfkEX/KwhElbucrTVCF8rgfUavg4qMxkXsAxEb3Ix5Verdt2GVG0tL94hD3GM8cCotjCj6Be3sjB3Ay7iybmVjHZ5HPeUol/YI3wsQVeCsLyBlzxhTA6aPhekx9PBNxJIs5M5KcPrzkraTdXKhW7VrwCCvz6RGbC5jDYvxJL2DjZMIum4uHdXmMmF1NQ+Zqx6lZG4wV55YcJ5ilzyZ9YaN3Sto6IjmTdsBnBxngsrVpolQdaRuE+F6YkPFPEEfbQRzLgrYcUJCKbAxVac0NH7zdz05GGLl3HW2WlVfkmgph6Dg+LiKfGuJxEgajC8qakHozq1aRkVRb+4Fb2J35w7iOf6t8vUbpgWU5WlQrHolweNphGeAvyK5fVpqhECK5yQosrgDNd1TJouHOMmA3+9DVrRyhVJJ8LLMwl8Cxf3dLjFsGTJLr8cCIgSL3HycaLNC2W0sFK666pukeS7LUVIamq3M9a8b1mOqUMGVsIyqi7Z2GPxdA4OCk3cscXOzHEMB4980w/BLUzy5yriCXrg4xN8LRnKuxlrvBXgd1c9ZyCyF4+gpMEvuEUmu4lcNiY1b3KK8mtWi3C/J3z0KTObiGIdMQfRARUAOi7xi9OIKuhypgZicLCFRb+eiTvncuS48sKHhPeIA9KViX6GE4t++dU9DM+31zLyodM9yrv9AoZw9ebGf5k1NJFe53G7E7S0Uk7F6kPw+oAUbDp/4/JkTM0vKkP7e2K5w1nhQJkn+kVefNAqPxn3jJALqak8+opqd+xJLrgVAOsR31XyvkkrdbQFslMn3Vm8tceVlEu6O+wo5tzF08HfQVHEO+j9tNf1Abh6c38Gl0ofL8UF07NTt5Ml/IpAKMVB8J1dW+JA+RWic1Tr/oY+GJ9ERxLWah9xCu9popsoYNT0AY2yG182GWUPFC769SzcuTAABPKAuGFYzuITJS1MWot+hRstoKon3ON6wl3U0qYEvUc1Ckj3OmDqJpmQIDbxtpxtdLMgqZJnP7jvHSx1z4pfHEhB1+Q2TmwhmRenp25CnIiOSceEfGpqVzNWGTEw1IhdUd4GDd1G+smAJnfncHl3MVoGaG6t4S6IwVxSgevuRKNxmOvMHyjiIXouwrfhzsQXnjGwUi9EirIhXljF0ZA3RiIz81j5Nb/10JGk5SLW3fZrUAHx2ZLQJ/0W4RzXin49A3f66hOKbLTPE75TQD7KbuKgy4NQ9ItX6LzNRVygHCRCycV0p0B7ohD1VNJoIdhMAyaQiGc5G3Dnxy3sUrVyCJT98q1HwwM4lX8OBT8JoVaEfnUYLocIs0XH9MJK4436VAHRFI06eaBE4eXuCiBMUb922yH9lPaV+ADNDV+qAQ6SkhCyfNXo3g2wZ24RBFDCkEt3lcoWo2NFfBQ9wJPcHaahL89fBEI1TEUNkT2tfiq/5jdHnVmbl/HR00Q6C+Ulqmenavt1vGFFv2QrvtqW3MGcPe7wMPyHr7/kfUmF1QuKRrI4E2c5CPFPooaPY9Hd7L71cP9fuvDPpUBI0xZNyubRLd0TokjECTutVoM+hj09AUWRLyyDqhqNDW6WpiZViFVqnms66nfeHik4N2en+LULuAaDt7ie0i2btHMd70TjtyGCiGdmistsBeCFfrjzBi+Cw02O0cJBIOsCCAciuf9Ix/QloijO0p80rmbjEsL3CR6xDfef31zCpmdh9AuVKOIznTOUdLenRLog+Ium7bubTn1smKL8SugY3RCMo0RZCLiMj6H/c6M7UJUI7z4u+rWjFbiSM5U7FNBYVZ2pbmklviPCXvuDmcJKQknzULx8hFeuqMdBCl2D0hd4o4AE+vTkDntN2PhOlUvcv1h+bMdfVyh05BJf1e6Jlm+/3oeXJKR7LBwqmYvhaivgzHFE7AOSPCELlcD9PAGK3YK2hLACH2F0cutxvBis/ycHomJ4he2VOCKDz7DPsA3RkxMFXF4NmJ+m5yriy53TDwwUwVSP9CsiIw1T9ug5DpRfRWwHW1KasfJNadREJKy4XBXRQsUIwMEG0IlFv5biDq+thy6XMbhwYy9shuyK21BbyS/3MNXNJd7270CgaQ1hKO5+wa1tTk+mOzpEk/uRYZ2H7yJArYRORytC9MVdyyUiqBXvAr7HJLjDuQW/YKoYKs/UiYNZ3N0y9XND4QAX09uHC3zcAMUqvogNWsz3AoIl8LEvWbkGKmPeclsBucaCb/uTWyBeoryXx+bXfkWj8bV3fOl55JRfG/s0y8v/0IR5aAgYAmMQaPdplr//+PLi/oOZwotz6svff5hf+0Wr8bV3fE2Zo+pz6NMsJkD7g4B11L3rqPtl8EBrX3AcapGc8suEdf+m6i84oAd26f0qZnztHV9TpFSfs6Sw/vnTq0H7Gt++/XMRdbOAHhDQ799+t9kc/7yz5Md33yKZSBYw2561HF9o3s4o+u6nj7Tg+Pju21fv3gd3wNQffqXckJ6mjHPq5zebzZsPg+I241fU1ocfNsKFL7HNP7+poA2F3V/MyK/HGwkFMBgTPQzeAoAZv1JU/64C9eGHndw6kH89jgr+8NYHZJS+YSTBX4nq338gsDFKaUg0vd0qg8igoEnNqqZUUW5twzDil3Bz2Trb+VXrVy6gSU9DvH75+49cF23gcs4vsHCHfmlVioQ16ZDKERWrkdjtiMYRkZzz648vTnHesSwKcfzwg1LAP9//iiICKhlklARFa0fGXyoY/wsiG8ObYTZW+UB0wa9QAOCtowrCWhn28iCDj3KE0AHgOM3g8N0Pb76LMVD1EON7JqzURb99+2ceLxXl5OScxEHEt2hojpETzm3kV4kFVFsZuH//8UXFLpyY/u2QvwE45/zCnn/8A828IiHAqdw7P92L+9Lxz2D2Rs7awHKqSvf/nRIQ219CL6m2frFRyZafmSpHWDdTDVLnZtodOGN98wEZTxndoH6VW8nxlZhRPh0iP3VK4axA/vUYhlgAhzHBwpGbX/7GMk6voXU/RQ1jBiTWRus9ElbsitBXMXQ+vP+Iw3V1sEoYUogPyh1E/PhqJ0hh21Ma+AUBnV0TFaRHCGsaxztmJYMRzvnllPT92+/QWuwnr9wxy72wzXUqkk705TvcwTj+2c/1ogFD2laXACgJxsjKcSyRifmwTP36+O5bPw5hJxeaJqYdZE9QBGmtHwny0z2nQQOizsEbzM60RWaktaV+pWVwOpWNNGx0jLC6Ob5QVVQVgR0eclvgWvUvD52760bvl075teQeK8SBc5590LtFAKue1UehM+/nEOLTUOg/ZaZfEOt+zHfBR+wgHXrimYtOmi+QwkIZkpvQRSfAmPMLKgeTUD1hRewkEm3wBihhpc723U8fxYLazQGla9jhq/2OMoNrSmKgIV9hcZTyaKR+ffzwwys3d47r/PbtO+gUUPOfP71CN11hnIXk6CA74V+i9SNWgpZnTyHGaSuggAYPZlxe8Zv6lZLukA8YRj16nLBGGws/v4m3EaS8UORELbqfCnbl1B4IK2LKA4izXnruUpD4yjwii8uwxCHEp6HQf0pbv1zoi24Zx5nfVCU9ZXxIWDPlucyog5xf3D2cQPhwwrHhW39VSgorjg2v3r2HAn6FhMLjdBYOo4AUxu/SR+2vEFaUp+xunXM/5xfpJvTw6O/bN8d4/U36pSbLZHNWHXg48brMAIqzApVxLuFGhavz4rxfqm8iSu/8CJEJhqHC6tiXQLmpvVN8VlgpL+kp8vRNZbm8R1sBgieF+7LpA4hf1oBMJLVwv6lfbopXlhswmGKUJkRuFumEBnS50biY8yv0fJxV8dQJzPbzoCBAsGPgVcldYeNJJcPuhCxnMNZPdXJ5PoATJUpSWN1MiiawfAod5PzSgcdq6E7Bn9FVuEws5YT1458/wQ54WTp5IowVIrzxBTQhQH4LhWFXZg/yCyaVgcTYi6HCSu16rp2SSj1lhWWOyo1WR4s9mLEyc4Ko5DBEAGFH4RhzMD59N/Hj65xv1fwamvjldCThgxM4QN0VBuirv7o7magz+BkcSpVcZU92MOcXdw8QzVe85+D00QUPCaubbe3WozzpO+ZWerpK1/TF7VYwwBSCOeeXi3Y3qjHmePDdTx9xsvkWr9UQmBIHXZ5/hdGCtqTBUz6R+pcS8TjXYega9Ujm5NsVKPvl2oLKk8GPzHAsUCyRmzrX3TghQPYXUZW8ulEtL6yMTe4gP1rsk7AWex11iQKsEcqjf+4ifnSFC9k5ttqZfrm1/6t3P5fvZIqXVG+O3ZX392+P4Z4V11tYayqaMsq1nF/U812o+E7uEnUWXAuGwUAKq/M07lRBgEIAgKCgLLJTyvKMuOgZq58E5SetOb/CLWtSy6hRcE2vVaE5hJ281sNDWolDIwgrSJj7E0NmIruyHjFw5jUo6xe5gA6GPdC82aPuCoCalWLQjJU2o/21cX9TfKFFh1uG0BAMe7EVUHVPwRQcY25mHtSJn1n5iqc38qtCTRBWrzjMlJhiCA1KVEZ3+4FY5fxyRsL/Wc1BHpw4OqvYNmw0ElY/YyJ7pHAEq4RT2TschKccpRmXQcdzqp3zC24JcraBSfxHc964qmBhnrXYLyjvBDRfHhQKTI1zXT00IKGeljUo65dHNRhAiEE9UtMxPfhFxYgprCcBWXHthVVgFeI27F8xtvFBfrSwGWuWCZVYI17xp84K/a3XMo38ijuVcDwEqJ/4+ICGU1iqWBpaPTKQ8wuNhE1A7gY0TwF2MNfPpj2JY4UVdU13eJCA/NxTQ7SzjDcp5xcjLCDlmReq0ivxZITQDnRZro4xSrWwSj2ql49zdT1o/wRhBftz4KRqO0tYwTxH3yu8syq7MpZRivTFLgtOA19TbrDS5yx9uxW4UfujITp1b35KLqA9dvMrX7GGRn7VqdFao2YKHsMkZOdim/OLjMzNBD0FatNwzFYACmh+Y9RlBTVPXZPileaqlIxfhCfODWnMcI6w+oANjgXZFgGSdiqCSKgwjT2xEEMlOECWa1P1k4V6qpHxq3TNkE5EHQxjM24FqJbSH0ouCTekHmAJGyaOMgQBUU1ryqXk9Me2AlT4pkqXJT4ttncpjfyCTqWilqJf71UhyCqguTdq8Q2n7+ClBHjOr7KROC1yfYUn0W4Kwz9T6ecZGfa9HfY7FVCrey+42GyuT2ZdS/3y2sfzNar2zQeeyQrYg8KWhDLs2CJ3Sge9F7GquDJleJlNaF1VyD7m/SoU5rPUkxqMADenDsKIwl44ct3PNHrDoEKQJgPnbpf3Qlgn9rFAgwJ6XG0p8U2qXb0S82t1CkYZYHyNgmv1wiasO3TWAnr1GB1lgPE1Cq7VC79gvvR+6ZRfS++x7tC+RYPjBRO/KG5rVW58rYX8tHZfMF9TpFSfY9+8ijef7LchYAgcOALNvnml1faF/Prrr79eiCfaDfNL49H7L+Ord4a0fU348lsBuuYX8qsJQB1iYX51SErFJOOrAk6HWU34MmHtkNkdJjUhfkcba2SbX2ugPr1N46uCnQlrBZxOsyygOzwH2T8AAA/cSURBVCWmYJbxVQCm0+QmfJmwdspuxawmxFfqXyvL/FoL+WntGl8V3ExYK+B0mmUB3SkxBbOMrwIwnSY34cuEtVN2K2Y1Ib5S/1pZ5tdayE9r1/iq4GbCWgGn0ywL6E6JKZhlfBWA6TS5CV8mrJ2yWzGrCfGV+tfKMr/WQn5au8ZXBTcT1go4nWZZQHdKTMEs46sATKfJTfgyYe2U3YpZTYiv1L9Wlvm1FvLT2jW+KriZsFbA6TTLArpTYgpmGV8FYDpNbsKXCWun7FbMakJ8pf61ssyvtZCf1q7xVcHNhLUCTqdZFtCdElMwy/gqANNpchO+TFg7ZbdiVhPiK/WvlWV+rYX8tHaNrwpuJqwVcDrNsoDulJiCWcZXAZhOk5vwZcLaKbsVs5oQX6l/rSzzay3kp7VrfFVwM2GtgNNplgV0p8QUzDK+CsB0mtyELxPWTtmtmNWE+Er9a2WZX2shP61d46uCm//m1fxvvFgNhoAhYAgYAg4Bm7FWRp1Os2ym0CkxBbOMrwIwnSY34cuEtVN2K2Y1Ib5S/1pZ5tdayE9r1/iq4GbCWgGn0ywL6E6JKZhlfBWA6TS5CV8mrCV2767OT87vOPfu/OT1+RX/XPOgCfFrOlBo2/wqANNpsvFVIeZghBWEsf4nZRQQuzp5HYT17vy1+FUB9BmyLKCfAeSGTRhfDcF8hqqa8HVAwvr6pDbhVDKK7MmUu/PXm81GCHNU193VyetNlLZYCDQhHgYObzEf1C0eWKxeSS23kV+1JlbJM79WgX1yo034OkxhvbsLa/ztFn8JGb1yc9uNk1KQS9CUczoHssNUdrsFUX19fk4yNZnPwSc2IV4Iq2hYoACp6uceCKsb/4C40iiXLTE8UUA1/HA+X1kDlQHZEsMTVV1Df8z3q9KSsF1wKVKXm8Y08euwhPXqBKetd+evT65AD5Ec96/SECD86mTj9dMd+eJ0FsfE3dX51V1eprhM24MmxGctjjY89M/+hTVweHWSlVZIDqT6w+GJE2mczddL9auMp4g81FKnolmmypVMzZnNFzR8WMKKc7CTc9BVcB4D9u4cu1oIXscHkIg97+7uHJVzu0WK1WRVULe47IS2mhAvhNWbjh7jbA9FKfopym/dLN0XhTEq2DbnqJFfYAJQlTIFLvFEB4rAj+GJU30zv6Yih+cxl1mmZlWdP7kJX4cmrLojwcDo1/WRsPrtgNcsG3dXUPYEdgmySrL/wur0SMqRmDe4KbxXJdz78HKKuLBa5SN1YGqTgMa2oAtKR5wB3EPxp/81PHGgF2kx8yvFZEQK6WmWqRH1DC7ahK/DE1bND+uhElZc77v57N3dHW6iblhP/c/XJ34i6wjjigbzN7lgE+LFDDSYrpUU5n1CnriYgkop7mSX8MQGfkEnxL+c1Gvm/V7P8MTJzplfk6GTa48sUzNqLp7agK/D2wqA5X/YC3AzVhQPoRZ+d9Wn4Aknr+UtATDLvbqii1mOIJadIl/NMpoQP11YIcDjP6G/091s5BcYgDbG4qp7pv81PHGyY+bXZOjk0iPL1OSaKyc24evAZqx+Dub+gann+R1K7ZW4AH53dYJPAgipxatdgQqRw4kHJaxNdJSho4MmAe0r073QJ9KiEn9CCZDe4Ylk59h/za+xiLnyUlUhJcvUtKqrZzXh66CE9fwcNkgR1DvYG/RXMlA2U7EUKSascsW/1BgyN6AFS6CadJ1K9Mfs4fDEancsZ5pfZWxKOUhgPH5nmSrVMD19Ll/Y8kEJa/SAgFrLCxn1lIgU0WUhU+QwfUupDTcQDpoQX9oKIDmC5mhS55oOHroA9/cC8G1rwcCJR7P9wt7odylCpxTd0e8RYJFQwG0cDEqc5Jn5NRo24Ez/uQlRYFjQN7r2HSfM5gvqP2RhlfjiqwD0bUNCPt34yQ9eyUvOgWoKhHhrTzbT5LgJ8VlhZYnxYUvO4c8grNHtVvJpiTkONvJLmwAuLM6IbjL+ZX7FiPT9uwlfJqy4dZO5iUpeEh8wY33GWGlC/DPaO7SpJfySLA61o3U586s1osvW14SvgxHWZbl41tqbEP+sFg9rzPwahlMvpYyvChMmrBVwOs2ygO6UmIJZxlcBmE6Tm/Bl37yyj/QYAoaAIdAYAZuxdjpsVsxqMqJW6l8ry/xaC/lp7RpfFdxMWCvgdJplAd0pMQWzjK8CMJ0mN+HLhLVTditmNSG+Uv9aWebXWshPa9f4quBmwloCx755VUJmqXTrqEshu0y9xlcF14MRVvvmVSUK+siyjtoHD0OtML4qSB2QsNJrAvJoiOesfAGZ4h5B4kev+JUDWBQe6nSPXb2OP0iYb2tm6gIBLZ+q0tZV7rAPWeXTdWX1X5P8QvDjR6t2MlIqMDa97pDPNb8GwdRNoUl8xdYfprC2/OYVvGTQv/oaX+yy4EPMczpqTPzQ30E9kzNC1krCCjKY+dqYe4oVn0/Ov4a7VGBseoJIPmF0R32pfuXh6S51NF85Dw5LWP0Hq/AJVYhenOm4f+X8FIEa+M2rSFOinznIZ6c1IX6oFUE9kzNCVhuvx/pV+NpYZEz0U76my3nEBfhgYHoCSCHB/CoA02nyWL6ybhyWsOKLqcJ7rlFMG33zyqMbdc4s5nMTxxDvxA82mGGzwm1V8Ho3bI5Iszkby8MXafgtK6Ws4umjPoc1xi+BoWw8/byMeNmMPyeMBz7BVzA2XZhQPzS/6vj0ljuRL+3GoQkr9jN+3RH0pUbfvHKw0ixYg9z41xji0cMT2qqANz2dn/uNYFRJvzsZxEm/EhA/FkDCWs6Sp8PXFdxrwvLr8DIYY/wStYTGMTH6iW8KVHuwpQJj04UJ9UPzq45Pb7kT+dJuHJ6wwkYaSYWYzqitANRHN58d+s2r3FxJQ93s1xjitbf+O09kSZijsajwgS8jzh+SpVBMV93UcP7fMX6JGiK7op8mrCVASukC2vrhRL7qlXaQ28SvgxNW0Ez+/rWbsaLMCkmY9M2rIFKLh8YY4iOzdGcKmZQeUsgLTuEDyoGXt/oRSpxOb6Xlf8MgxicWDsb4Jaqgxn1S9NOEtQRIKV1AWz+cyFe90g5ym/h1YMLqtcD9A2vhNt+8ChLzHHExhvjIMt2ZQialhxRyhFP4gHLywjpcR7keOhjjF52TzooTO8WQiWeVCoxNFybUD82vOj695U7kS7txUMK6zDevkg6pEW7/awzxkXEkoM6okMnpfODNHr0VwPvX4/0e45eoPTY5+h39TJWYC/CBq5x/8kGULmyoHppfVXi6y5zIl/bjoIR1iW9eBXHSwC74awzxkXlaI0JmSJdXqPC+3PAdmnJW/vQtLAnUdaM6KGP8EjWFxn0iDAZ0uQ6e3UhMKBUYmy6MqB2aXzV0+subyJd25JCFVSIx9ZtX0BejvxmLYWlR+XgM8UE7sT4tQiFTppfuqYLLc/yMGdy5Fe7EKp+uPyNW9glyxvjlP3WooWcFDXbSsxvRRDVbQDkoTqyk1x3yuebXIJi6KTSSr7zdJqz2zat8ZDx/apOArph9dcLKWynVPsv8ao/pkjU24etghHVJJp657ibEP7PNQ5pb2K87uoF3iC0ty5hfLdFcvq4mfJmwLk9U6xaaEN/aqAb1mV8NQHzGKoyvCtj2zavG37qx6gwBQ8AQsBlrZdTpNMtmCp0SUzDL+CoA02lyE75MWDtlt2JWE+Ir9a+VZX6thfy0do2vCm4mrBVwOs2ygO6UmIJZxlcBmE6Tm/Blwlpi1755VUJmqfQmAb2UcTPqNb9mgLfCqU34OhhhtW9erRCi45psEtDjmnyW0ubXs8DcrJEmfB2QsNafroxf1YHvxA5veHYvJg0fvZK3mtNrpOlF0s0YLlTUhHhZt3xwSqaLtyrq5GV+NfdrGTNH12p+jYZs1ROa8HWYwtrwm1fwWKh/MB2e+NykT6Y3D5ImxEurysIqSy1+PM0v+VBxGO5EakiUHmQLDE+UVe06Nr92IdRX/jS+Ih8OS1j9S0EafvMqPG6PwEY/I7Ab/WxCvLRlj4VVAI6q6FQUBjj/ygZxKFwWqeEwHLnHnHG9kk0UNQ04nMLXS/VrAFyrF5nCV2L0YQkrru/De65x+d/0m1eiPyRQN0toQry0xgkrv2BFfMRbSm54cYl+A4usadbxXL9AWVFOQQx5ngqp/MPbly0wPHGkl+bXSMBWLj6XLzT/0IQVtw25o4EONvzmFVQX9+EFgqQJ8dIu+GQCvK0qfKqKEArC6mTHv6wK9zxoTihrmnU81y9SRhZYtEb/yiT5ArpcLXGsk+bXWMTWLT+XL7T+8IRVdyBWDnXxauw3r6BO/gjq4lHRhHhpZfjSt08VqHiJ5RQ6LzmHMqb/O8+vwGs4QltSS7MFhieO9dD8GovYuuXn8eVtPzhhXeqbV4Dn2M+SToyfJsTLthPV3NIwQznpFkeaImucdDzHL5it0otwtUTqX2iYTvK/hieOdc78GovYuuXn8MWWH5iwejlw/8CmYZtvXjGc4jtQIa31URPipVEknyFtv4RVqir4QHsC6A8IZrw/ky0wPDHgNOhoMl8v1a9BqK1XaDJf0uSDEtYFvnkVa9ICEzlJFx43IV7WmiyW2av0gM5LzqGM6f9O8gt0k+eq1LbQyBGH2aLZRGpn2L/m1zCceik1ia/Y+IMS1iW+eeU6Hl3UgYth/FRBjHWr302Il8aAD5vX4eLVCV+DY2H1s0D28+TkpLmnU/xC09UHWtzsFPUW0wMfQiPxo9j+tFAA1hsDEyV8u47Nr10I9ZU/ha/Eg0MWVgnG1G9eqe8hwW1IXnpk3a2PmxAvjIJZ9sn5+QmLCj3woJ+8kg+YXd0tMDVv7ZdwEWjKbAnoEkv9Mr+WQnaZepvwZcJq37waH574+dZ443J8NdEZTQI6qpN/LjAQcN07DsyvHQB1lt2Er4MR1s7Im2NOE+LHGgBX+mhKu9BLEVbxaywOE8qbXxNAW/GUJnyZsK7I4MSmmxA/se0lTzO/lkS3fd3GVwVT++aVfZ7HEDAEDIHGCNiMtTLqdJplM4VOiSmYZXwVgOk0uQlfJqydslsxqwnxlfrXyjK/1kJ+WrvGVwU3E9YKOJ1mWUB3SkzBLOOrAEynyU34MmHtlN2KWU2Ir9S/Vpb5tRby09o1viq4mbBWwOk0ywK6U2IKZhlfBWA6TW7Clwlrp+xWzGpCfKX+tbLMr7WQn9au8VXBzYS1Ak6nWRbQnRJTMMv4KgDTaXITvkxYO2W3YlYT4iv1r5Vlfq2F/LR2ja8KbiasFXA6zbKA7pSYglnGVwGYTpOb8GXC2im7FbOaEF+pf60s82st5Ke1a3xVcDNhrYDTaZYFdKfEFMwyvgrAdJrchC8T1k7ZrZjVhPhK/WtlmV9rIT+tXeOrgpsJawWcTrMsoDslpmCW8VUAptPkJnz9P85bns6pZEbCAAAAAElFTkSuQmCC;" vertex="1" parent="WIyWlLk6GJQsqaUBKTNV-1">
          <mxGeometry width="377.83" height="145" as="geometry" />
        </mxCell>
        <mxCell id="2i8kP_EbP8lLGdPD6YHy-3" value="&lt;h1 style=&quot;margin-top: 0px;&quot;&gt;private:&lt;/h1&gt;&lt;p&gt;Grid world_grids_[constant::MaxGridLayers];&lt;/p&gt;" style="text;html=1;whiteSpace=wrap;overflow=hidden;rounded=0;" vertex="1" parent="WIyWlLk6GJQsqaUBKTNV-1">
          <mxGeometry x="420" width="250" height="120" as="geometry" />
        </mxCell>
        <mxCell id="2i8kP_EbP8lLGdPD6YHy-4" value="world_grids_[layer].Init(name, activating_range, cell_size)" style="whiteSpace=wrap;html=1;rounded=1;glass=0;strokeWidth=1;shadow=0;" vertex="1" parent="WIyWlLk6GJQsqaUBKTNV-1">
          <mxGeometry x="27.5" y="320" width="345" height="60" as="geometry" />
        </mxCell>
      </root>
    </mxGraphModel>
  </diagram>
</mxfile>
